<svg width="1592" height="181" viewBox="0 0 1592 181" fill="none" xmlns="http://www.w3.org/2000/svg">
<path d="M0.500001 90.75C0.500001 140.5 24.75 180.75 79 180.75C98.75 180.75 144 176 144 147.25V102.25C144 96.5 136.75 87.25 130.75 87.25H89C83 87.25 77 94.5 77 100C77 117.5 107.5 110.5 107.5 130.75C107.5 140 100.5 147.25 92.25 150.75H80.75C45.25 150.75 37.25 120.5 37.25 90.75C37.25 65 43.25 30.5 75.75 30.5C97.75 30.5 104 57.5 124.75 57.5C134.25 57.5 139.25 53 139.25 43.5C139.25 13.25 99 0.499988 74.75 0.499988C21.5 0.499988 0.500001 43.5 0.500001 90.75ZM203.416 2.25C197.916 2.25 186.666 7.49999 186.666 14V132.25C186.666 166 226.416 180.75 253.416 180.75C282.666 180.75 319.916 163.75 319.916 129V15.75C319.916 7.74998 308.916 2.25 302.416 2.25C295.166 2.25 284.166 11.5 284.166 19V125.75C284.166 141.5 266.666 150.75 253.416 150.75C232.666 150.75 220.916 134.25 220.916 114V14C220.916 8 208.166 2.25 203.416 2.25ZM382.717 2.25C373.217 2.25 363.717 10.75 363.717 20.75V162.25C363.717 171.5 373.717 179 381.967 179C389.217 179 396.967 174.75 398.717 167.25C398.717 158 399.967 115 400.467 105.75C400.717 98.75 399.967 87 408.967 87C414.717 87 416.467 88.75 420.467 95.75C425.717 104.75 451.467 146.75 456.967 155.75C464.717 168 472.717 179.25 487.967 179.25C494.467 179.25 506.967 176.5 506.967 167.25V15.75C506.967 7.74998 495.967 2.25 489.467 2.25C482.217 2.25 471.217 11.5 471.217 19V89C471.217 91.25 465.967 95.75 463.967 95.75C438.967 95.75 425.217 2.25 382.717 2.25ZM577.73 2.25C566.48 2.25 552.73 6.49999 552.73 20.75V162.25C552.73 171.5 562.73 179 570.98 179C576.73 179 588.48 174 588.48 167.25V99C588.48 97.5 592.48 91.25 594.48 90.75C611.98 86.25 615.98 177.5 645.98 177.5C678.23 177.5 675.73 90.5 697.73 90.5C700.73 90.5 703.48 94.5 703.48 97.25V165.75C703.48 172.75 714.98 179.25 720.98 179.25C728.98 179.25 739.48 173.5 739.48 164V19C739.48 6.49999 724.98 2.25 715.23 2.25C702.23 2.25 691.23 6.24999 685.98 19C682.23 30.25 663.48 82.75 659.48 94C657.48 99 654.23 110.75 647.23 110.75C639.48 110.75 636.73 104 634.48 97.25L607.73 22.25C602.48 7.74998 592.23 2.25 577.73 2.25ZM775.48 165.75C775.48 174.75 783.23 179 791.48 179C814.73 179 811.73 144 832.23 144H872.23C893.23 144 889.98 179 913.23 179C921.98 179 928.98 174.25 928.98 164.75V162.25C921.48 142.25 886.48 49 878.98 29C874.48 16.75 867.48 2.25 852.23 2.25C842.23 2.25 832.23 9.74999 828.98 19C821.23 39.75 784.98 136.5 777.23 157.25C775.48 162 775.48 161.5 775.48 165.75ZM837.23 105.75C837.23 104.75 836.98 100 836.98 99C836.98 90.75 840.48 68.75 852.23 68.75C862.98 68.75 867.48 89.75 867.48 98.25C867.48 108.5 862.48 112.5 852.23 112.5C844.73 112.5 842.23 111.75 837.23 105.75ZM981.199 2.25C972.449 4.74999 964.449 10.75 964.449 20.75V162.25C964.449 171.5 974.449 179 982.699 179C988.449 179 1000.2 174 1000.2 167.25V132.25C1000.2 124.75 1010.45 115.5 1017.7 115.5C1025.7 115.5 1031.45 122 1036.2 127.25C1043.95 142.25 1055.45 179.25 1079.7 179.25C1087.45 179.25 1094.7 175.75 1094.7 167.25C1094.7 166.75 1094.45 164.5 1094.45 164C1091.2 157.5 1075.95 127.25 1072.7 120.75C1070.95 117 1070.95 116 1070.95 112.25C1070.95 93.25 1094.7 82.75 1094.7 56.5C1094.7 6.75 1045.7 2.25 1006.2 2.25H981.199ZM1000.95 59C1000.95 44 1005.95 32.25 1022.95 32.25C1040.2 32.25 1057.95 40 1057.95 59.5C1057.95 78.75 1039.95 84.25 1024.45 84.25C1022.95 84.25 1015.95 84 1014.45 84C1003.2 79.5 1000.95 70.5 1000.95 59ZM1154.62 2.25C1145.37 2.25 1136.37 11.25 1136.37 20.75V162.25C1136.37 171.5 1146.37 179 1154.62 179C1161.87 179 1169.62 174.75 1171.37 167.25C1171.87 155.25 1169.62 118.75 1190.87 118.75C1194.87 118.75 1198.87 120.25 1201.37 124L1228.12 164C1235.12 174.75 1242.87 179.25 1254.87 179.25C1261.87 179.25 1269.87 177.25 1269.87 168.5C1269.87 163.25 1269.62 162.25 1266.37 157.25L1228.12 99C1222.87 91 1222.87 90.5 1222.87 82.5C1222.87 73.75 1226.12 69.25 1231.37 62.25C1236.12 56.25 1258.37 28.25 1263.12 22.25C1266.12 18.75 1266.62 16.25 1266.62 12.25C1266.62 3.49999 1257.12 2.25 1250.62 2.25C1216.37 2.25 1203.87 62.5 1182.12 62.5C1173.12 62.5 1173.62 52.75 1173.12 45.75C1172.62 41 1171.62 18.75 1171.37 14C1169.62 7.49999 1161.12 2.25 1154.62 2.25ZM1424.07 16C1424.07 9.49999 1415.82 2.25 1409.07 2.25H1324.07C1315.32 2.25 1307.32 12.5 1307.32 20.75V162.25C1307.32 169.25 1315.57 179 1322.32 179H1412.32C1419.82 179 1424.07 170.5 1424.07 164.5C1424.07 157.5 1416.57 149.75 1409.07 149.75H1357.32C1347.07 149.75 1343.82 133.25 1343.82 126.5C1343.82 119.75 1347.32 103.25 1357.32 103.25H1399.07C1404.57 103.25 1412.32 93.75 1412.32 88.25C1412.32 83.75 1407.07 74.75 1402.32 74.75H1362.32C1351.32 74.75 1343.82 62.75 1343.82 53.25C1343.82 46 1349.82 31.5 1359.07 31.5H1412.32C1419.57 31.5 1424.07 21.75 1424.07 16ZM1451.7 16.25C1451.7 44.25 1502.7 20 1502.7 45.75V164C1502.7 172.75 1513.7 179.25 1520.95 179.25C1526.95 179.25 1539.45 173.25 1539.45 165.75V47.25C1539.45 29 1572.95 30.75 1580.2 30.75C1587.7 28 1591.95 24 1591.95 16C1591.95 9.49999 1583.7 2.25 1576.95 2.25H1466.95C1459.2 2.25 1451.7 8.74999 1451.7 16.25Z" fill="#3D464D"/>
<path d="M92.25 150.75V151.75H92.4534L92.6406 151.671L92.25 150.75ZM-0.499999 90.75C-0.499999 115.771 5.59626 138.515 18.6211 155.026C31.6731 171.571 51.6001 181.75 79 181.75V179.75C52.1499 179.75 32.8269 169.804 20.1914 153.787C7.52874 137.735 1.5 115.479 1.5 90.75H-0.499999ZM79 181.75C88.9257 181.75 105.302 180.56 119.234 175.726C133.117 170.909 145 162.299 145 147.25H143C143 160.951 132.258 169.091 118.578 173.836C104.948 178.565 88.8243 179.75 79 179.75V181.75ZM145 147.25V102.25H143V147.25H145ZM145 102.25C145 99.0359 143.021 95.0618 140.389 91.9482C139.055 90.3708 137.511 88.9608 135.884 87.9384C134.263 86.9205 132.5 86.25 130.75 86.25V88.25C132 88.25 133.393 88.7357 134.82 89.6319C136.239 90.5236 137.632 91.7854 138.861 93.2393C141.354 96.1882 143 99.7141 143 102.25H145ZM130.75 86.25H89V88.25H130.75V86.25ZM89 86.25C85.6109 86.25 82.3618 88.2768 80.0067 90.8935C77.6508 93.5112 76 96.9267 76 100H78C78 97.5733 79.3492 94.6138 81.4933 92.2315C83.6382 89.8482 86.3891 88.25 89 88.25V86.25ZM76 100C76 104.742 78.0993 107.865 81.1699 110.143C84.163 112.363 88.1292 113.812 91.8872 115.276C95.7198 116.768 99.3715 118.285 102.081 120.621C104.73 122.904 106.5 125.991 106.5 130.75H108.5C108.5 125.384 106.458 121.753 103.387 119.106C100.379 116.512 96.4052 114.888 92.6128 113.412C88.7458 111.906 85.087 110.559 82.3614 108.537C79.7133 106.572 78 104.008 78 100H76ZM106.5 130.75C106.5 139.451 99.8979 146.419 91.8595 149.829L92.6406 151.671C101.102 148.081 108.5 140.549 108.5 130.75H106.5ZM92.25 149.75H80.75V151.75H92.25V149.75ZM80.75 149.75C72.0201 149.75 65.0416 147.892 59.4749 144.692C53.9091 141.492 49.7002 136.921 46.556 131.411C40.2489 120.358 38.25 105.57 38.25 90.75H36.25C36.25 105.68 38.2511 120.892 44.819 132.402C48.1123 138.173 52.5597 143.023 58.4782 146.426C64.3959 149.827 71.7299 151.75 80.75 151.75V149.75ZM38.25 90.75C38.25 77.9209 39.7497 63.0363 45.2176 51.3938C47.9454 45.5858 51.6436 40.6217 56.6016 37.1089C61.5502 33.6027 67.8127 31.5 75.75 31.5V29.5C67.4373 29.5 60.7623 31.7098 55.4453 35.477C50.1376 39.2376 46.2421 44.508 43.4074 50.5436C37.7503 62.5887 36.25 77.8291 36.25 90.75H38.25ZM75.75 31.5C86.2906 31.5 93.0799 37.9323 100.02 44.7151C106.866 51.4061 113.902 58.5 124.75 58.5V56.5C114.848 56.5 108.384 50.0939 101.418 43.2848C94.5451 36.5677 87.2094 29.5 75.75 29.5V31.5ZM124.75 58.5C129.641 58.5 133.558 57.3426 136.251 54.788C138.953 52.224 140.25 48.4176 140.25 43.5H138.25C138.25 48.0824 137.047 51.276 134.874 53.337C132.692 55.4074 129.359 56.5 124.75 56.5V58.5ZM140.25 43.5C140.25 27.8499 129.819 16.8281 116.564 9.77348C103.306 2.71751 87.0156 -0.500011 74.75 -0.500011V1.49999C86.7344 1.49999 102.694 4.65747 115.624 11.539C128.556 18.4219 138.25 28.9001 138.25 43.5H140.25ZM74.75 -0.500011C47.8142 -0.500011 28.9436 10.3962 16.8427 27.3247C4.77513 44.2067 -0.499999 66.998 -0.499999 90.75H1.5C1.5 67.252 6.72487 44.9183 18.4698 28.4878C30.1814 12.1038 48.4358 1.49999 74.75 1.49999V-0.500011ZM203.416 1.25C200.43 1.25 196.064 2.6445 192.46 4.83271C190.644 5.93471 188.967 7.2707 187.733 8.79192C186.499 10.3134 185.666 12.0759 185.666 14H187.666C187.666 12.6741 188.239 11.3429 189.286 10.0518C190.334 8.76053 191.813 7.56527 193.497 6.54228C196.893 4.48048 200.902 3.25 203.416 3.25V1.25ZM185.666 14V132.25H187.666V14H185.666ZM185.666 132.25C185.666 149.589 195.899 161.994 209.405 170.016C222.895 178.027 239.764 181.75 253.416 181.75V179.75C240.068 179.75 223.562 176.098 210.427 168.296C197.308 160.506 187.666 148.661 187.666 132.25H185.666ZM253.416 181.75C268.211 181.75 285.034 177.456 298.187 168.74C311.363 160.009 320.916 146.789 320.916 129H318.916C318.916 145.961 309.844 158.616 297.082 167.073C284.298 175.544 267.871 179.75 253.416 179.75V181.75ZM320.916 129V15.75H318.916V129H320.916ZM320.916 15.75C320.916 11.2632 317.842 7.62391 314.158 5.16794C310.461 2.70282 305.896 1.25 302.416 1.25V3.25C305.436 3.25 309.622 4.54717 313.049 6.83204C316.49 9.12607 318.916 12.2367 318.916 15.75H320.916ZM302.416 1.25C298.439 1.25 293.648 3.74091 289.908 7.06509C286.18 10.3791 283.166 14.8181 283.166 19H285.166C285.166 15.6819 287.652 11.7459 291.237 8.55991C294.809 5.38409 299.143 3.25 302.416 3.25V1.25ZM283.166 19V125.75H285.166V19H283.166ZM283.166 125.75C283.166 133.212 279.03 139.189 273.181 143.341C267.32 147.501 259.835 149.75 253.416 149.75V151.75C260.247 151.75 268.137 149.374 274.339 144.972C280.552 140.561 285.166 134.038 285.166 125.75H283.166ZM253.416 149.75C243.331 149.75 235.491 145.752 230.154 139.33C224.8 132.887 221.916 123.94 221.916 114H219.916C219.916 124.31 222.907 133.738 228.616 140.608C234.341 147.498 242.751 151.75 253.416 151.75V149.75ZM221.916 114V14H219.916V114H221.916ZM221.916 14C221.916 12.1428 220.936 10.4262 219.586 8.95652C218.225 7.4742 216.392 6.13374 214.448 5.00941C212.499 3.88172 210.399 2.94859 208.476 2.2953C206.572 1.64877 204.764 1.25 203.416 1.25V3.25C204.443 3.25 206.01 3.56998 207.833 4.18906C209.636 4.8014 211.615 5.68077 213.447 6.74059C215.284 7.80375 216.935 9.02579 218.113 10.3091C219.303 11.605 219.916 12.8572 219.916 14H221.916ZM398.717 167.25L399.691 167.477L399.717 167.365V167.25H398.717ZM400.467 105.75L401.465 105.804L401.466 105.795L401.466 105.786L400.467 105.75ZM420.467 95.75L419.599 96.2462L419.603 96.2539L420.467 95.75ZM456.967 155.75L456.114 156.271L456.118 156.278L456.122 156.285L456.967 155.75ZM382.717 1.25C377.676 1.25 372.688 3.49881 368.967 7.02404C365.242 10.5521 362.717 15.4274 362.717 20.75H364.717C364.717 16.0726 366.941 11.6979 370.342 8.47595C373.746 5.25117 378.258 3.25 382.717 3.25V1.25ZM362.717 20.75V162.25H364.717V20.75H362.717ZM362.717 162.25C362.717 167.247 365.413 171.691 369.097 174.853C372.776 178.011 377.563 180 381.967 180V178C378.121 178 373.782 176.239 370.399 173.335C367.02 170.434 364.717 166.503 364.717 162.25H362.717ZM381.967 180C389.516 180 397.801 175.574 399.691 167.477L397.743 167.023C396.132 173.926 388.918 178 381.967 178V180ZM399.717 167.25C399.717 158.02 400.966 115.038 401.465 105.804L399.468 105.696C398.967 114.962 397.717 157.98 397.717 167.25H399.717ZM401.466 105.786C401.595 102.181 401.471 97.6719 402.405 93.9963C402.867 92.1788 403.563 90.6833 404.587 89.649C405.583 88.644 406.96 88 408.967 88V86C406.474 86 404.57 86.8247 403.166 88.2416C401.792 89.6292 400.973 91.5087 400.466 93.5037C399.463 97.4531 399.589 102.319 399.467 105.714L401.466 105.786ZM408.967 88C411.737 88 413.348 88.4211 414.752 89.5337C416.234 90.708 417.585 92.7229 419.599 96.2461L421.335 95.2539C419.348 91.7771 417.825 89.4169 415.994 87.9662C414.086 86.4538 411.947 86 408.967 86V88ZM419.603 96.2539C424.86 105.266 450.62 147.282 456.114 156.271L457.82 155.229C452.314 146.218 426.574 104.234 421.331 95.2461L419.603 96.2539ZM456.122 156.285C463.837 168.479 472.104 180.25 487.967 180.25V178.25C473.329 178.25 465.597 167.521 457.812 155.215L456.122 156.285ZM487.967 180.25C491.322 180.25 496.225 179.546 500.328 177.624C504.432 175.703 507.967 172.433 507.967 167.25H505.967C505.967 171.317 503.251 174.047 499.48 175.813C495.708 177.579 491.112 178.25 487.967 178.25V180.25ZM507.967 167.25V15.75H505.967V167.25H507.967ZM507.967 15.75C507.967 11.2632 504.893 7.62391 501.209 5.16794C497.511 2.70282 492.947 1.25 489.467 1.25V3.25C492.487 3.25 496.672 4.54717 500.1 6.83204C503.541 9.12606 505.967 12.2367 505.967 15.75H507.967ZM489.467 1.25C485.49 1.25 480.698 3.74091 476.959 7.06509C473.23 10.3791 470.217 14.8181 470.217 19H472.217C472.217 15.6819 474.703 11.7459 478.287 8.55991C481.86 5.38409 486.193 3.25 489.467 3.25V1.25ZM470.217 19V89H472.217V19H470.217ZM470.217 89C470.217 89.235 470.049 89.7205 469.549 90.4255C469.08 91.0882 468.415 91.8072 467.673 92.4754C466.931 93.1427 466.141 93.7335 465.435 94.1508C464.68 94.5967 464.178 94.75 463.967 94.75V96.75C464.756 96.75 465.66 96.3408 466.452 95.8727C467.293 95.3759 468.19 94.7011 469.011 93.962C469.831 93.224 470.604 92.3962 471.181 91.5823C471.728 90.8107 472.217 89.8899 472.217 89H470.217ZM463.967 94.75C461.175 94.75 458.454 93.4492 455.709 90.9879C452.96 88.5231 450.264 84.9622 447.55 80.6113C442.112 71.8953 436.762 60.2902 430.796 48.5471C424.857 36.8562 418.325 25.0694 410.579 16.2015C402.829 7.32875 393.75 1.25 382.717 1.25V3.25C392.933 3.25 401.51 8.85874 409.073 17.5172C416.64 26.1806 423.077 37.7688 429.013 49.4529C434.922 61.0848 440.353 72.8547 445.853 81.6699C448.607 86.0847 451.419 89.8285 454.373 92.477C457.331 95.1289 460.508 96.75 463.967 96.75V94.75ZM594.48 90.75L594.723 91.7202L594.729 91.7185L594.48 90.75ZM685.98 19L685.056 18.6192L685.043 18.6511L685.032 18.6838L685.98 19ZM659.48 94L660.409 94.3714L660.416 94.3533L660.423 94.335L659.48 94ZM634.48 97.25L635.429 96.9338L635.426 96.9239L635.422 96.9141L634.48 97.25ZM607.73 22.25L608.672 21.914L608.671 21.9096L607.73 22.25ZM577.73 1.25C572.007 1.25 565.559 2.3269 560.505 5.29388C555.393 8.2952 551.73 13.2289 551.73 20.75H553.73C553.73 14.021 556.943 9.70478 561.518 7.0186C566.152 4.29808 572.204 3.25 577.73 3.25V1.25ZM551.73 20.75V162.25H553.73V20.75H551.73ZM551.73 162.25C551.73 167.247 554.427 171.691 558.11 174.853C561.79 178.011 566.576 180 570.98 180V178C567.135 178 562.796 176.239 559.413 173.335C556.034 170.434 553.73 166.503 553.73 162.25H551.73ZM570.98 180C574.071 180 578.617 178.681 582.384 176.524C584.278 175.439 586.031 174.112 587.32 172.577C588.612 171.04 589.48 169.242 589.48 167.25H587.48C587.48 168.633 586.88 169.992 585.789 171.29C584.696 172.591 583.152 173.779 581.39 174.788C577.844 176.819 573.64 178 570.98 178V180ZM589.48 167.25V99H587.48V167.25H589.48ZM589.48 99C589.48 99.0088 589.48 98.9771 589.5 98.8918C589.519 98.8112 589.55 98.7053 589.597 98.5733C589.693 98.3086 589.838 97.9786 590.029 97.5991C590.412 96.8415 590.95 95.9432 591.554 95.0677C592.159 94.1906 592.812 93.3622 593.419 92.7337C593.722 92.4193 594 92.1697 594.242 91.9915C594.494 91.8054 594.654 91.7375 594.723 91.7201L594.238 89.7799C593.807 89.8875 593.404 90.1243 593.055 90.3815C592.695 90.6467 592.333 90.9792 591.98 91.3445C591.274 92.0753 590.552 92.9969 589.907 93.9323C589.261 94.8693 588.674 95.8459 588.244 96.6978C588.029 97.1229 587.847 97.5312 587.715 97.8974C587.592 98.2389 587.48 98.634 587.48 99H589.48ZM594.729 91.7185C596.411 91.2861 598.03 91.9346 599.741 93.8515C601.469 95.7871 603.127 98.8551 604.768 102.791C608.049 110.656 611.104 121.559 614.588 132.735C618.056 143.856 621.943 155.219 626.871 163.81C631.773 172.355 637.906 178.5 645.98 178.5V176.5C639.055 176.5 633.438 171.239 628.606 162.815C623.8 154.437 619.968 143.269 616.498 132.14C613.045 121.066 609.943 110 606.614 102.021C604.952 98.0355 603.191 94.7129 601.233 92.5196C599.259 90.3076 596.925 89.0889 594.231 89.7815L594.729 91.7185ZM645.98 178.5C654.585 178.5 660.739 172.67 665.447 164.401C670.16 156.125 673.586 145.138 676.661 134.272C679.754 123.346 682.489 112.561 685.823 104.475C687.489 100.435 689.271 97.1562 691.263 94.9001C693.241 92.6598 695.356 91.5 697.73 91.5V89.5C694.605 89.5 691.986 91.0589 689.764 93.5765C687.555 96.0782 685.671 99.5959 683.974 103.713C680.582 111.939 677.801 122.904 674.737 133.728C671.656 144.612 668.286 155.375 663.709 163.411C659.129 171.455 653.501 176.5 645.98 176.5V178.5ZM697.73 91.5C698.792 91.5 699.971 92.2315 700.946 93.464C701.912 94.6854 702.48 96.1607 702.48 97.25H704.48C704.48 95.5893 703.674 93.6896 702.515 92.2235C701.364 90.7685 699.669 89.5 697.73 89.5V91.5ZM702.48 97.25V165.75H704.48V97.25H702.48ZM702.48 165.75C702.48 167.778 703.312 169.701 704.565 171.405C705.82 173.111 707.535 174.654 709.413 175.948C713.135 178.515 717.707 180.25 720.98 180.25V178.25C718.254 178.25 714.076 176.735 710.548 174.302C708.801 173.096 707.266 171.701 706.177 170.22C705.086 168.737 704.48 167.222 704.48 165.75H702.48ZM720.98 180.25C725.193 180.25 730.023 178.745 733.817 175.997C737.622 173.242 740.48 169.158 740.48 164H738.48C738.48 168.342 736.089 171.883 732.644 174.378C729.188 176.88 724.767 178.25 720.98 178.25V180.25ZM740.48 164V19H738.48V164H740.48ZM740.48 19C740.48 12.275 736.547 7.79975 731.488 5.0583C726.46 2.33312 720.222 1.25 715.23 1.25V3.25C719.989 3.25 725.876 4.29187 730.535 6.81668C735.164 9.32523 738.48 13.225 738.48 19H740.48ZM715.23 1.25C708.639 1.25 702.464 2.26235 697.241 4.9549C691.993 7.66021 687.769 12.0308 685.056 18.6192L686.905 19.3807C689.442 13.2192 693.343 9.21477 698.157 6.73258C702.997 4.23764 708.822 3.25 715.23 3.25V1.25ZM685.032 18.6838C681.286 29.9212 662.542 82.4039 658.538 93.665L660.423 94.335C664.419 83.096 683.175 30.5788 686.929 19.3162L685.032 18.6838ZM658.552 93.6286C657.51 96.2348 656.253 100.277 654.352 103.772C652.424 107.317 650.115 109.75 647.23 109.75V111.75C651.346 111.75 654.162 108.308 656.109 104.728C658.083 101.098 659.451 96.7652 660.409 94.3714L658.552 93.6286ZM647.23 109.75C643.712 109.75 641.365 108.246 639.587 105.923C637.764 103.542 636.557 100.318 635.429 96.9338L633.532 97.5662C634.654 100.932 635.947 104.458 637.999 107.139C640.096 109.879 642.999 111.75 647.23 111.75V109.75ZM635.422 96.9141L608.672 21.9141L606.789 22.5859L633.539 97.5859L635.422 96.9141ZM608.671 21.9096C605.986 14.4938 601.988 9.296 596.734 5.96775C591.493 2.64735 585.101 1.25 577.73 1.25V3.25C584.86 3.25 590.843 4.60263 595.664 7.65723C600.473 10.704 604.225 15.5061 606.79 22.5904L608.671 21.9096ZM928.98 162.25H929.98V162.069L929.917 161.899L928.98 162.25ZM878.98 29L878.042 29.3448L878.044 29.3511L878.98 29ZM828.98 19L829.917 19.3499L829.921 19.3407L829.924 19.3315L828.98 19ZM777.23 157.25L776.294 156.9L776.292 156.904L777.23 157.25ZM837.23 105.75H836.23V106.112L836.462 106.39L837.23 105.75ZM774.48 165.75C774.48 170.578 776.577 174.185 779.794 176.555C782.976 178.9 787.2 180 791.48 180V178C787.511 178 783.735 176.975 780.98 174.945C778.259 172.94 776.48 169.922 776.48 165.75H774.48ZM791.48 180C803.77 180 809.087 170.652 813.767 161.975C816.149 157.558 818.361 153.31 821.226 150.139C824.046 147.019 827.448 145 832.23 145V143C826.763 143 822.852 145.356 819.742 148.798C816.678 152.19 814.343 156.692 812.007 161.025C807.249 169.848 802.44 178 791.48 178V180ZM832.23 145H872.23V143H832.23V145ZM872.23 145C877.146 145 880.628 147.027 883.49 150.145C886.399 153.314 888.626 157.56 891.007 161.975C895.684 170.647 900.938 180 913.23 180V178C902.273 178 897.527 169.853 892.767 161.025C890.429 156.69 888.078 152.186 884.963 148.793C881.802 145.348 877.815 143 872.23 143V145ZM913.23 180C917.775 180 921.96 178.767 925.028 176.205C928.12 173.623 929.98 169.768 929.98 164.75H927.98C927.98 169.232 926.341 172.502 923.746 174.67C921.126 176.858 917.436 178 913.23 178V180ZM929.98 164.75V162.25H927.98V164.75H929.98ZM929.917 161.899C926.167 151.899 915.542 123.586 904.917 95.2737C894.292 66.9611 883.667 38.6487 879.917 28.6489L878.044 29.3511C881.794 39.3513 892.419 67.6639 903.044 95.9763C913.669 124.289 924.294 152.601 928.044 162.601L929.917 161.899ZM879.919 28.6552C877.663 22.5131 874.742 15.6913 870.411 10.398C866.054 5.07312 860.229 1.25 852.23 1.25V3.25C859.482 3.25 864.782 6.67686 868.863 11.6645C872.969 16.6837 875.798 23.2369 878.042 29.3448L879.919 28.6552ZM852.23 1.25C841.784 1.25 831.42 9.03929 828.037 18.6685L829.924 19.3315C833.041 10.4607 842.677 3.25 852.23 3.25V1.25ZM828.044 18.6501C824.169 29.0246 813.169 58.399 802.169 87.7743C791.169 117.149 780.169 146.525 776.294 156.9L778.167 157.6C782.042 147.225 793.042 117.851 804.042 88.4757C815.042 59.101 826.042 29.7254 829.917 19.3499L828.044 18.6501ZM776.292 156.904C775.441 159.215 774.961 160.385 774.722 161.474C774.475 162.603 774.48 163.664 774.48 165.75H776.48C776.48 163.586 776.486 162.772 776.676 161.901C776.875 160.99 777.27 160.035 778.169 157.596L776.292 156.904ZM838.23 105.75C838.23 105.222 838.166 103.752 838.105 102.332C838.041 100.877 837.98 99.4716 837.98 99H835.98C835.98 99.5283 836.045 100.998 836.106 102.418C836.17 103.873 836.23 105.278 836.23 105.75H838.23ZM837.98 99C837.98 94.9693 838.842 87.5238 841.14 81.119C842.29 77.9165 843.774 75.0435 845.633 72.9869C847.476 70.9474 849.645 69.75 852.23 69.75V67.75C848.941 67.75 846.266 69.3026 844.149 71.6459C842.046 73.9722 840.453 77.1147 839.258 80.4435C836.869 87.1012 835.98 94.7807 835.98 99H837.98ZM852.23 69.75C854.556 69.75 856.605 70.8762 858.413 72.8411C860.23 74.8165 861.745 77.5814 862.955 80.6767C865.378 86.8705 866.48 94.1218 866.48 98.25H868.48C868.48 93.8782 867.333 86.3795 864.818 79.9483C863.56 76.7311 861.934 73.7148 859.884 71.487C857.825 69.2488 855.28 67.75 852.23 67.75V69.75ZM866.48 98.25C866.48 103.228 865.267 106.46 863.03 108.476C860.769 110.513 857.258 111.5 852.23 111.5V113.5C857.453 113.5 861.567 112.487 864.369 109.962C867.194 107.415 868.48 103.522 868.48 98.25H866.48ZM852.23 111.5C848.48 111.5 846.167 111.305 844.187 110.456C842.223 109.614 840.472 108.078 837.999 105.11L836.462 106.39C838.989 109.422 840.988 111.261 843.399 112.294C845.794 113.32 848.481 113.5 852.23 113.5V111.5ZM981.199 2.25V1.25H981.059L980.924 1.28847L981.199 2.25ZM1036.2 127.25L1037.09 126.791L1037.03 126.675L1036.94 126.579L1036.2 127.25ZM1094.45 164H1095.45V163.764L1095.34 163.553L1094.45 164ZM1072.7 120.75L1071.79 121.173L1071.8 121.185L1071.8 121.197L1072.7 120.75ZM1014.45 84L1014.08 84.9285L1014.26 85H1014.45V84ZM980.924 1.28847C971.998 3.83887 963.449 10.0865 963.449 20.75H965.449C965.449 11.4135 972.9 5.66112 981.474 3.21152L980.924 1.28847ZM963.449 20.75V162.25H965.449V20.75H963.449ZM963.449 162.25C963.449 167.247 966.146 171.691 969.829 174.853C973.509 178.011 978.295 180 982.699 180V178C978.853 178 974.515 176.239 971.132 173.335C967.753 170.434 965.449 166.503 965.449 162.25H963.449ZM982.699 180C985.79 180 990.335 178.681 994.102 176.524C995.997 175.439 997.749 174.112 999.039 172.577C1000.33 171.04 1001.2 169.242 1001.2 167.25H999.199C999.199 168.633 998.599 169.992 997.508 171.29C996.415 172.591 994.871 173.779 993.109 174.788C989.563 176.819 985.358 178 982.699 178V180ZM1001.2 167.25V132.25H999.199V167.25H1001.2ZM1001.2 132.25C1001.2 128.906 1003.53 124.965 1006.91 121.792C1010.3 118.624 1014.44 116.5 1017.7 116.5V114.5C1013.71 114.5 1009.1 117.001 1005.55 120.333C1002 123.66 999.199 128.094 999.199 132.25H1001.2ZM1017.7 116.5C1021.41 116.5 1024.64 118.003 1027.57 120.205C1030.51 122.418 1033.07 125.279 1035.46 127.921L1036.94 126.579C1034.58 123.971 1031.89 120.957 1028.77 118.607C1025.63 116.247 1021.99 114.5 1017.7 114.5V116.5ZM1035.31 127.709C1037.23 131.431 1039.38 136.499 1041.95 142.118C1044.5 147.707 1047.44 153.784 1050.91 159.401C1057.81 170.57 1067.01 180.25 1079.7 180.25V178.25C1068.14 178.25 1059.46 169.43 1052.61 158.349C1049.21 152.841 1046.31 146.855 1043.77 141.288C1041.24 135.751 1039.04 130.569 1037.09 126.791L1035.31 127.709ZM1079.7 180.25C1083.7 180.25 1087.68 179.349 1090.68 177.258C1093.72 175.136 1095.7 171.831 1095.7 167.25H1093.7C1093.7 171.169 1092.05 173.864 1089.53 175.617C1086.97 177.401 1083.44 178.25 1079.7 178.25V180.25ZM1095.7 167.25C1095.7 166.941 1095.63 166.186 1095.57 165.534C1095.5 164.811 1095.45 164.191 1095.45 164H1093.45C1093.45 164.309 1093.52 165.064 1093.58 165.716C1093.64 166.439 1093.7 167.059 1093.7 167.25H1095.7ZM1095.34 163.553C1093.72 160.301 1089.09 151.112 1084.47 141.925C1079.84 132.737 1075.22 123.551 1073.59 120.303L1071.8 121.197C1073.43 124.449 1078.06 133.638 1082.68 142.825C1087.31 152.013 1091.93 161.199 1093.55 164.447L1095.34 163.553ZM1073.61 120.327C1072.74 118.476 1072.35 117.38 1072.15 116.319C1071.95 115.239 1071.95 114.151 1071.95 112.25H1069.95C1069.95 114.099 1069.95 115.386 1070.18 116.681C1070.43 117.995 1070.91 119.274 1071.79 121.173L1073.61 120.327ZM1071.95 112.25C1071.95 103.145 1077.62 96.0664 1083.64 87.6764C1089.59 79.3716 1095.7 69.9614 1095.7 56.5H1093.7C1093.7 69.2886 1087.93 78.2534 1082.01 86.5111C1076.15 94.6836 1069.95 102.355 1069.95 112.25H1071.95ZM1095.7 56.5C1095.7 43.8913 1092.59 34.0729 1087.24 26.4603C1081.9 18.8536 1074.37 13.5244 1065.65 9.79917C1048.26 2.36662 1025.95 1.25 1006.2 1.25V3.25C1025.95 3.25 1047.89 4.38338 1064.87 11.6383C1073.34 15.2569 1080.53 20.3808 1085.61 27.61C1090.68 34.8334 1093.7 44.2337 1093.7 56.5H1095.7ZM1006.2 1.25H981.199V3.25H1006.2V1.25ZM1001.95 59C1001.95 51.5779 1003.19 45.1377 1006.39 40.5742C1009.55 36.0788 1014.71 33.25 1022.95 33.25V31.25C1014.19 31.25 1008.35 34.2962 1004.76 39.4258C1001.21 44.4872 999.949 51.4221 999.949 59H1001.95ZM1022.95 33.25C1031.45 33.25 1039.98 35.1621 1046.37 39.3958C1052.7 43.5991 1056.95 50.109 1056.95 59.5H1058.95C1058.95 49.391 1054.32 42.2759 1047.47 37.7292C1040.66 33.2128 1031.7 31.25 1022.95 31.25V33.25ZM1056.95 59.5C1056.95 68.7407 1052.66 74.6143 1046.51 78.2315C1040.28 81.8866 1032.11 83.25 1024.45 83.25V85.25C1032.29 85.25 1040.87 83.8634 1047.52 79.956C1054.23 76.0107 1058.95 69.5093 1058.95 59.5H1056.95ZM1024.45 83.25C1023.72 83.25 1021.62 83.1883 1019.48 83.1254C1017.37 83.0633 1015.22 83 1014.45 83V85C1015.18 85 1017.28 85.0617 1019.42 85.1246C1021.53 85.1867 1023.68 85.25 1024.45 85.25V83.25ZM1014.82 83.0715C1009.42 80.9093 1006.24 77.7065 1004.39 73.7047C1002.51 69.6553 1001.95 64.7071 1001.95 59H999.949C999.949 64.7929 1000.51 70.0947 1002.57 74.5453C1004.66 79.0435 1008.23 82.5907 1014.08 84.9285L1014.82 83.0715ZM1171.37 167.25L1172.35 167.477L1172.37 167.386L1172.37 167.292L1171.37 167.25ZM1201.37 124L1200.54 124.555L1200.54 124.556L1201.37 124ZM1228.12 164L1228.96 163.454L1228.95 163.444L1228.12 164ZM1266.37 157.25L1267.21 156.705L1267.21 156.701L1266.37 157.25ZM1228.12 99L1227.29 99.5486L1227.29 99.5489L1228.12 99ZM1231.37 62.25L1230.59 61.6293L1230.58 61.6395L1230.57 61.65L1231.37 62.25ZM1263.12 22.25L1262.36 21.5992L1262.35 21.614L1262.34 21.6293L1263.12 22.25ZM1173.12 45.75L1174.12 45.6787L1174.12 45.662L1174.12 45.6453L1173.12 45.75ZM1171.37 14L1172.37 13.9474L1172.37 13.842L1172.34 13.74L1171.37 14ZM1154.62 1.25C1149.68 1.25 1144.87 3.64776 1141.32 7.23363C1137.76 10.8207 1135.37 15.6877 1135.37 20.75H1137.37C1137.37 16.3123 1139.48 11.9293 1142.74 8.64137C1146 5.35223 1150.32 3.25 1154.62 3.25V1.25ZM1135.37 20.75V162.25H1137.37V20.75H1135.37ZM1135.37 162.25C1135.37 167.247 1138.07 171.691 1141.75 174.853C1145.43 178.011 1150.22 180 1154.62 180V178C1150.78 178 1146.44 176.239 1143.06 173.335C1139.68 170.434 1137.37 166.503 1137.37 162.25H1135.37ZM1154.62 180C1162.17 180 1170.46 175.574 1172.35 167.477L1170.4 167.023C1168.79 173.926 1161.57 178 1154.62 178V180ZM1172.37 167.292C1172.63 161.174 1172.19 149.22 1174.32 138.699C1175.39 133.45 1177.07 128.685 1179.72 125.252C1182.34 121.862 1185.9 119.75 1190.87 119.75V117.75C1185.22 117.75 1181.1 120.2 1178.14 124.03C1175.22 127.815 1173.45 132.925 1172.36 138.301C1170.18 149.03 1170.62 161.326 1170.37 167.208L1172.37 167.292ZM1190.87 119.75C1194.63 119.75 1198.27 121.149 1200.54 124.555L1202.21 123.445C1199.48 119.351 1195.12 117.75 1190.87 117.75V119.75ZM1200.54 124.556L1227.29 164.556L1228.95 163.444L1202.2 123.444L1200.54 124.556ZM1227.29 164.546C1230.84 170.007 1234.63 173.953 1239.13 176.524C1243.62 179.099 1248.74 180.25 1254.87 180.25V178.25C1249 178.25 1244.25 177.151 1240.12 174.788C1235.99 172.422 1232.41 168.743 1228.96 163.454L1227.29 164.546ZM1254.87 180.25C1258.44 180.25 1262.39 179.746 1265.48 178.031C1267.04 177.165 1268.4 175.982 1269.37 174.389C1270.34 172.795 1270.87 170.845 1270.87 168.5H1268.87C1268.87 170.53 1268.41 172.111 1267.66 173.353C1266.9 174.597 1265.83 175.554 1264.51 176.282C1261.86 177.754 1258.31 178.25 1254.87 178.25V180.25ZM1270.87 168.5C1270.87 165.887 1270.82 164.182 1270.3 162.489C1269.78 160.805 1268.83 159.195 1267.21 156.705L1265.53 157.795C1267.17 160.305 1267.96 161.695 1268.39 163.074C1268.8 164.443 1268.87 165.863 1268.87 168.5H1270.87ZM1267.21 156.701L1228.96 98.4511L1227.29 99.5489L1265.54 157.799L1267.21 156.701ZM1228.96 98.4513C1226.31 94.419 1225.09 92.4179 1224.48 90.4549C1223.88 88.5049 1223.87 86.5501 1223.87 82.5H1221.87C1221.87 86.4499 1221.86 88.7451 1222.57 91.0451C1223.28 93.332 1224.68 95.581 1227.29 99.5486L1228.96 98.4513ZM1223.87 82.5C1223.87 74.1056 1226.93 69.838 1232.17 62.85L1230.57 61.65C1225.31 68.662 1221.87 73.3944 1221.87 82.5H1223.87ZM1232.16 62.8707C1234.53 59.8715 1241.28 51.3723 1248.03 42.8719C1254.78 34.3723 1261.53 25.8715 1263.91 22.8707L1262.34 21.6293C1259.96 24.6285 1253.22 33.1276 1246.46 41.6281C1239.72 50.1276 1232.96 58.6285 1230.59 61.6293L1232.16 62.8707ZM1263.88 22.9008C1265.44 21.0791 1266.4 19.4643 1266.95 17.7423C1267.5 16.0316 1267.62 14.2836 1267.62 12.25H1265.62C1265.62 14.2164 1265.5 15.7184 1265.05 17.1327C1264.6 18.5356 1263.8 19.9209 1262.36 21.5992L1263.88 22.9008ZM1267.62 12.25C1267.62 9.86971 1266.97 7.9385 1265.84 6.40321C1264.72 4.87877 1263.17 3.8067 1261.46 3.05383C1258.08 1.56014 1253.9 1.25 1250.62 1.25V3.25C1253.84 3.25 1257.67 3.56485 1260.66 4.88366C1262.14 5.53704 1263.37 6.41809 1264.23 7.58897C1265.09 8.74898 1265.62 10.2553 1265.62 12.25H1267.62ZM1250.62 1.25C1241.74 1.25 1234.31 5.16572 1227.86 10.918C1221.43 16.6572 1215.92 24.2813 1210.86 31.8171C1205.76 39.3989 1201.14 46.848 1196.42 52.4411C1191.68 58.0586 1187.08 61.5 1182.12 61.5V63.5C1188.04 63.5 1193.16 59.4101 1197.95 53.7308C1202.76 48.0269 1207.49 40.4136 1212.52 32.9329C1217.57 25.4062 1222.97 17.9678 1229.2 12.4101C1235.41 6.86552 1242.38 3.25 1250.62 3.25V1.25ZM1182.12 61.5C1180.06 61.5 1178.65 60.9477 1177.63 60.0994C1176.6 59.238 1175.88 57.9921 1175.39 56.4446C1174.37 53.2834 1174.38 49.3001 1174.12 45.6787L1172.13 45.8212C1172.37 49.1999 1172.37 53.5916 1173.48 57.0554C1174.05 58.8204 1174.93 60.4495 1176.35 61.635C1177.79 62.8335 1179.68 63.5 1182.12 63.5V61.5ZM1174.12 45.6453C1173.62 40.9299 1172.62 18.7369 1172.37 13.9474L1170.37 14.0526C1170.62 18.7631 1171.62 41.0701 1172.13 45.8547L1174.12 45.6453ZM1172.34 13.74C1171.38 10.1786 1168.61 7.06372 1165.34 4.85798C1162.06 2.64882 1158.12 1.25 1154.62 1.25V3.25C1157.63 3.25 1161.19 4.47617 1164.22 6.51701C1167.26 8.56126 1169.62 11.3214 1170.41 14.26L1172.34 13.74ZM1425.07 16C1425.07 12.3541 1422.79 8.66801 1419.77 5.94539C1416.75 3.21461 1412.77 1.25 1409.07 1.25V3.25C1412.12 3.25 1415.64 4.91038 1418.43 7.4296C1421.23 9.95698 1423.07 13.1459 1423.07 16H1425.07ZM1409.07 1.25H1324.07V3.25H1409.07V1.25ZM1324.07 1.25C1319.31 1.25 1314.86 4.02702 1311.66 7.75383C1308.45 11.4829 1306.32 16.331 1306.32 20.75H1308.32C1308.32 16.919 1310.19 12.5171 1313.17 9.05867C1316.15 5.59797 1320.09 3.25 1324.07 3.25V1.25ZM1306.32 20.75V162.25H1308.32V20.75H1306.32ZM1306.32 162.25C1306.32 166.087 1308.55 170.501 1311.54 173.91C1314.51 177.302 1318.52 180 1322.32 180V178C1319.38 178 1315.88 175.823 1313.04 172.59C1310.22 169.374 1308.32 165.413 1308.32 162.25H1306.32ZM1322.32 180H1412.32V178H1322.32V180ZM1412.32 180C1416.49 180 1419.7 177.625 1421.83 174.571C1423.94 171.529 1425.07 167.705 1425.07 164.5H1423.07C1423.07 167.295 1422.07 170.721 1420.19 173.429C1418.31 176.125 1415.65 178 1412.32 178V180ZM1425.07 164.5C1425.07 160.661 1423.03 156.734 1420.09 153.793C1417.15 150.848 1413.15 148.75 1409.07 148.75V150.75C1412.49 150.75 1416 152.527 1418.68 155.207C1421.36 157.891 1423.07 161.339 1423.07 164.5H1425.07ZM1409.07 148.75H1357.32V150.75H1409.07V148.75ZM1357.32 148.75C1352.84 148.75 1349.71 145.151 1347.65 140.268C1345.61 135.441 1344.82 129.763 1344.82 126.5H1342.82C1342.82 129.987 1343.65 135.934 1345.81 141.045C1347.93 146.099 1351.55 150.75 1357.32 150.75V148.75ZM1344.82 126.5C1344.82 123.246 1345.67 117.569 1347.74 112.737C1349.83 107.841 1352.97 104.25 1357.32 104.25V102.25C1351.68 102.25 1348.06 106.909 1345.9 111.951C1343.72 117.056 1342.82 123.004 1342.82 126.5H1344.82ZM1357.32 104.25H1399.07V102.25H1357.32V104.25ZM1399.07 104.25C1400.72 104.25 1402.42 103.547 1404.01 102.518C1405.6 101.479 1407.16 100.05 1408.52 98.4633C1409.88 96.875 1411.07 95.1016 1411.92 93.3528C1412.77 91.6186 1413.32 89.8369 1413.32 88.25H1411.32C1411.32 89.4131 1410.9 90.8814 1410.12 92.4753C1409.35 94.0547 1408.26 95.6875 1407 97.1617C1405.73 98.6373 1404.32 99.9277 1402.92 100.842C1401.5 101.765 1400.17 102.25 1399.07 102.25V104.25ZM1413.32 88.25C1413.32 85.7152 1411.89 82.1417 1409.93 79.2514C1408.94 77.787 1407.77 76.4362 1406.51 75.4411C1405.25 74.4544 1403.82 73.75 1402.32 73.75V75.75C1403.2 75.75 1404.2 76.1705 1405.27 77.0121C1406.33 77.8451 1407.36 79.0255 1408.27 80.3736C1410.13 83.1082 1411.32 86.2848 1411.32 88.25H1413.32ZM1402.32 73.75H1362.32V75.75H1402.32V73.75ZM1362.32 73.75C1357.21 73.75 1352.85 70.9669 1349.74 66.9494C1346.61 62.9241 1344.82 57.7619 1344.82 53.25H1342.82C1342.82 58.2381 1344.78 63.8259 1348.16 68.1756C1351.54 72.533 1356.43 75.75 1362.32 75.75V73.75ZM1344.82 53.25C1344.82 49.8342 1346.26 44.5694 1348.84 40.162C1351.45 35.7152 1355 32.5 1359.07 32.5V30.5C1353.89 30.5 1349.82 34.5348 1347.11 39.1505C1344.39 43.8056 1342.82 49.4158 1342.82 53.25H1344.82ZM1359.07 32.5H1412.32V30.5H1359.07V32.5ZM1412.32 32.5C1416.43 32.5 1419.64 29.737 1421.76 26.4474C1423.88 23.1481 1425.07 19.0876 1425.07 16H1423.07C1423.07 18.6624 1422.01 22.3519 1420.07 25.3651C1418.13 28.388 1415.46 30.5 1412.32 30.5V32.5ZM1580.2 30.75V31.75H1580.38L1580.55 31.6889L1580.2 30.75ZM1450.7 16.25C1450.7 19.9055 1451.54 22.7947 1453.06 25.0598C1454.59 27.3229 1456.75 28.8801 1459.27 29.9687C1464.25 32.1204 1470.82 32.5167 1477.15 32.8424C1483.59 33.1739 1489.78 33.4332 1494.38 35.1517C1496.66 36.0001 1498.46 37.1799 1499.71 38.8385C1500.95 40.4886 1501.7 42.7032 1501.7 45.75H1503.7C1503.7 42.3593 1502.86 39.6989 1501.31 37.6371C1499.77 35.5838 1497.59 34.2147 1495.08 33.278C1490.12 31.4262 1483.56 31.1698 1477.25 30.8451C1470.83 30.5145 1464.65 30.1139 1460.07 28.1328C1457.8 27.155 1455.98 25.8118 1454.72 23.9412C1453.46 22.0725 1452.7 19.5945 1452.7 16.25H1450.7ZM1501.7 45.75V164H1503.7V45.75H1501.7ZM1501.7 164C1501.7 168.814 1504.72 172.889 1508.51 175.709C1512.31 178.53 1517.07 180.25 1520.95 180.25V178.25C1517.58 178.25 1513.22 176.72 1509.7 174.104C1506.18 171.486 1503.7 167.936 1503.7 164H1501.7ZM1520.95 180.25C1524.2 180.25 1529.01 178.661 1532.98 176.159C1536.92 173.686 1540.45 170.051 1540.45 165.75H1538.45C1538.45 168.949 1535.74 172.064 1531.92 174.466C1528.15 176.839 1523.71 178.25 1520.95 178.25V180.25ZM1540.45 165.75V47.25H1538.45V165.75H1540.45ZM1540.45 47.25C1540.45 43.0534 1542.35 40.0217 1545.39 37.7771C1548.47 35.5015 1552.72 34.0468 1557.3 33.1371C1566.46 31.3177 1576.52 31.75 1580.2 31.75V29.75C1576.64 29.75 1566.32 29.3072 1556.91 31.1754C1552.21 32.1094 1547.63 33.6391 1544.2 36.1682C1540.74 38.7283 1538.45 42.3216 1538.45 47.25H1540.45ZM1580.55 31.6889C1584.37 30.2864 1587.49 28.5231 1589.65 25.9929C1591.83 23.4363 1592.95 20.1925 1592.95 16H1590.95C1590.95 19.8075 1589.95 22.5637 1588.13 24.6946C1586.29 26.8519 1583.53 28.4636 1579.86 29.8111L1580.55 31.6889ZM1592.95 16C1592.95 12.3541 1590.67 8.66801 1587.65 5.94539C1584.63 3.21461 1580.65 1.25 1576.95 1.25V3.25C1580 3.25 1583.52 4.91038 1586.31 7.4296C1589.11 9.95698 1590.95 13.1459 1590.95 16H1592.95ZM1576.95 1.25H1466.95V3.25H1576.95V1.25ZM1466.95 1.25C1462.8 1.25 1458.76 2.9845 1455.75 5.6946C1452.74 8.40463 1450.7 12.1594 1450.7 16.25H1452.7C1452.7 12.8406 1454.41 9.59535 1457.09 7.18038C1459.77 4.76549 1463.35 3.25 1466.95 3.25V1.25Z" fill="#3D464D"/>
</svg>
